<svg xmlns="http://www.w3.org/2000/svg" xmlns:xlink="http://www.w3.org/1999/xlink" contentStyleType="text/css" data-diagram-type="SEQUENCE" height="555px" preserveAspectRatio="none" style="width:807px;height:555px;background:#FFFFFF;" version="1.1" viewBox="0 0 807 555" width="807px" zoomAndPan="magnify"><defs/><g><rect fill="none" height="449.8594" style="stroke:#000000;stroke-width:1.5;" width="791.4165" x="10" y="53.2969"/><rect fill="none" height="59.2656" style="stroke:#000000;stroke-width:1.5;" width="210.916" x="20" y="320.3594"/><g><title>ESP32</title><rect fill="#000000" fill-opacity="0.00000" height="483.8594" width="8" x="54.9946" y="36.2969"/><line style="stroke:#181818;stroke-width:0.5;stroke-dasharray:5,5;" x1="58" x2="58" y1="36.2969" y2="520.1563"/></g><g><title>MPU6050</title><rect fill="#000000" fill-opacity="0.00000" height="483.8594" width="8" x="244.0591" y="36.2969"/><line style="stroke:#181818;stroke-width:0.5;stroke-dasharray:5,5;" x1="247.8604" x2="247.8604" y1="36.2969" y2="520.1563"/></g><g><title>SW420</title><rect fill="#000000" fill-opacity="0.00000" height="483.8594" width="8" x="325.9834" y="36.2969"/><line style="stroke:#181818;stroke-width:0.5;stroke-dasharray:5,5;" x1="329.2578" x2="329.2578" y1="36.2969" y2="520.1563"/></g><g><title>SW1801P</title><rect fill="#000000" fill-opacity="0.00000" height="483.8594" width="8" x="408.1094" y="36.2969"/><line style="stroke:#181818;stroke-width:0.5;stroke-dasharray:5,5;" x1="411.709" x2="411.709" y1="36.2969" y2="520.1563"/></g><g><title>MQTT</title><rect fill="#000000" fill-opacity="0.00000" height="483.8594" width="8" x="485.6108" y="36.2969"/><line style="stroke:#181818;stroke-width:0.5;stroke-dasharray:5,5;" x1="489.5098" x2="489.5098" y1="36.2969" y2="520.1563"/></g><g><title>Web</title><rect fill="#000000" fill-opacity="0.00000" height="483.8594" width="8" x="686.3105" y="36.2969"/><line style="stroke:#181818;stroke-width:0.5;stroke-dasharray:5,5;" x1="689.6392" x2="689.6392" y1="36.2969" y2="520.1563"/></g><g><title>Android</title><rect fill="#000000" fill-opacity="0.00000" height="483.8594" width="8" x="753.1992" y="36.2969"/><line style="stroke:#181818;stroke-width:0.5;stroke-dasharray:5,5;" x1="756.9819" x2="756.9819" y1="36.2969" y2="520.1563"/></g><g class="participant participant-head" data-participant="ESP32"><rect fill="#E2E2F0" height="30.2969" rx="2.5" ry="2.5" style="stroke:#181818;stroke-width:0.5;" width="57.9893" x="30" y="5"/><text fill="#000000" font-family="sans-serif" font-size="14" lengthAdjust="spacing" textLength="43.9893" x="37" y="24.9951">ESP32</text></g><g class="participant participant-tail" data-participant="ESP32"><rect fill="#E2E2F0" height="30.2969" rx="2.5" ry="2.5" style="stroke:#181818;stroke-width:0.5;" width="57.9893" x="30" y="519.1563"/><text fill="#000000" font-family="sans-serif" font-size="14" lengthAdjust="spacing" textLength="43.9893" x="37" y="539.1514">ESP32</text></g><g class="participant participant-head" data-participant="MPU6050"><rect fill="#E2E2F0" height="30.2969" rx="2.5" ry="2.5" style="stroke:#181818;stroke-width:0.5;" width="80.3975" x="207.8604" y="5"/><text fill="#000000" font-family="sans-serif" font-size="14" lengthAdjust="spacing" textLength="66.3975" x="214.8604" y="24.9951">MPU6050</text></g><g class="participant participant-tail" data-participant="MPU6050"><rect fill="#E2E2F0" height="30.2969" rx="2.5" ry="2.5" style="stroke:#181818;stroke-width:0.5;" width="80.3975" x="207.8604" y="519.1563"/><text fill="#000000" font-family="sans-serif" font-size="14" lengthAdjust="spacing" textLength="66.3975" x="214.8604" y="539.1514">MPU6050</text></g><g class="participant participant-head" data-participant="SW420"><rect fill="#E2E2F0" height="30.2969" rx="2.5" ry="2.5" style="stroke:#181818;stroke-width:0.5;" width="63.4512" x="298.2578" y="5"/><text fill="#000000" font-family="sans-serif" font-size="14" lengthAdjust="spacing" textLength="49.4512" x="305.2578" y="24.9951">SW420</text></g><g class="participant participant-tail" data-participant="SW420"><rect fill="#E2E2F0" height="30.2969" rx="2.5" ry="2.5" style="stroke:#181818;stroke-width:0.5;" width="63.4512" x="298.2578" y="519.1563"/><text fill="#000000" font-family="sans-serif" font-size="14" lengthAdjust="spacing" textLength="49.4512" x="305.2578" y="539.1514">SW420</text></g><g class="participant participant-head" data-participant="SW1801P"><rect fill="#E2E2F0" height="30.2969" rx="2.5" ry="2.5" style="stroke:#181818;stroke-width:0.5;" width="80.8008" x="371.709" y="5"/><text fill="#000000" font-family="sans-serif" font-size="14" lengthAdjust="spacing" textLength="66.8008" x="378.709" y="24.9951">SW1801P</text></g><g class="participant participant-tail" data-participant="SW1801P"><rect fill="#E2E2F0" height="30.2969" rx="2.5" ry="2.5" style="stroke:#181818;stroke-width:0.5;" width="80.8008" x="371.709" y="519.1563"/><text fill="#000000" font-family="sans-serif" font-size="14" lengthAdjust="spacing" textLength="66.8008" x="378.709" y="539.1514">SW1801P</text></g><g class="participant participant-head" data-participant="MQTT"><rect fill="#E2E2F0" height="30.2969" rx="2.5" ry="2.5" style="stroke:#181818;stroke-width:0.5;" width="54.2021" x="462.5098" y="5"/><text fill="#000000" font-family="sans-serif" font-size="14" lengthAdjust="spacing" textLength="40.2021" x="469.5098" y="24.9951">MQTT</text></g><g class="participant participant-tail" data-participant="MQTT"><rect fill="#E2E2F0" height="30.2969" rx="2.5" ry="2.5" style="stroke:#181818;stroke-width:0.5;" width="54.2021" x="462.5098" y="519.1563"/><text fill="#000000" font-family="sans-serif" font-size="14" lengthAdjust="spacing" textLength="40.2021" x="469.5098" y="539.1514">MQTT</text></g><g class="participant participant-head" data-participant="Web"><rect fill="#E2E2F0" height="30.2969" rx="2.5" ry="2.5" style="stroke:#181818;stroke-width:0.5;" width="45.3428" x="667.6392" y="5"/><text fill="#000000" font-family="sans-serif" font-size="14" lengthAdjust="spacing" textLength="31.3428" x="674.6392" y="24.9951">Web</text></g><g class="participant participant-tail" data-participant="Web"><rect fill="#E2E2F0" height="30.2969" rx="2.5" ry="2.5" style="stroke:#181818;stroke-width:0.5;" width="45.3428" x="667.6392" y="519.1563"/><text fill="#000000" font-family="sans-serif" font-size="14" lengthAdjust="spacing" textLength="31.3428" x="674.6392" y="539.1514">Web</text></g><g class="participant participant-head" data-participant="Android"><rect fill="#E2E2F0" height="30.2969" rx="2.5" ry="2.5" style="stroke:#181818;stroke-width:0.5;" width="68.4346" x="722.9819" y="5"/><text fill="#000000" font-family="sans-serif" font-size="14" lengthAdjust="spacing" textLength="54.4346" x="729.9819" y="24.9951">Android</text></g><g class="participant participant-tail" data-participant="Android"><rect fill="#E2E2F0" height="30.2969" rx="2.5" ry="2.5" style="stroke:#181818;stroke-width:0.5;" width="68.4346" x="722.9819" y="519.1563"/><text fill="#000000" font-family="sans-serif" font-size="14" lengthAdjust="spacing" textLength="54.4346" x="729.9819" y="539.1514">Android</text></g><path d="M10,53.2969 L86.624,53.2969 L86.624,60.4297 L76.624,70.4297 L10,70.4297 L10,53.2969" fill="#EEEEEE" style="stroke:#000000;stroke-width:1.5;"/><rect fill="none" height="449.8594" style="stroke:#000000;stroke-width:1.5;" width="791.4165" x="10" y="53.2969"/><text fill="#000000" font-family="sans-serif" font-size="13" font-weight="bold" lengthAdjust="spacing" textLength="31.624" x="25" y="66.3638">loop</text><text fill="#000000" font-family="sans-serif" font-size="11" font-weight="bold" lengthAdjust="spacing" textLength="89.5952" x="101.624" y="65.5073">[Every 100ms]</text><g class="message" data-participant-1="ESP32" data-participant-2="MPU6050"><polygon fill="#181818" points="236.0591,87.5625,246.0591,91.5625,236.0591,95.5625,240.0591,91.5625" style="stroke:#181818;stroke-width:1;"/><line style="stroke:#181818;stroke-width:1;" x1="58.9946" x2="242.0591" y1="91.5625" y2="91.5625"/><text fill="#000000" font-family="sans-serif" font-size="13" lengthAdjust="spacing" textLength="165.0645" x="65.9946" y="86.4966">Read accelerometer data</text></g><g class="message" data-participant-1="ESP32" data-participant-2="MPU6050"><polygon fill="#181818" points="236.0591,116.6953,246.0591,120.6953,236.0591,124.6953,240.0591,120.6953" style="stroke:#181818;stroke-width:1;"/><line style="stroke:#181818;stroke-width:1;" x1="58.9946" x2="242.0591" y1="120.6953" y2="120.6953"/><text fill="#000000" font-family="sans-serif" font-size="13" lengthAdjust="spacing" textLength="138.1631" x="65.9946" y="115.6294">Read gyroscope data</text></g><g class="message" data-participant-1="ESP32" data-participant-2="SW420"><polygon fill="#181818" points="317.9834,145.8281,327.9834,149.8281,317.9834,153.8281,321.9834,149.8281" style="stroke:#181818;stroke-width:1;"/><line style="stroke:#181818;stroke-width:1;" x1="58.9946" x2="323.9834" y1="149.8281" y2="149.8281"/><text fill="#000000" font-family="sans-serif" font-size="13" lengthAdjust="spacing" textLength="139.6865" x="65.9946" y="144.7622">Read digital vibration</text></g><g class="message" data-participant-1="ESP32" data-participant-2="SW1801P"><polygon fill="#181818" points="400.1094,174.9609,410.1094,178.9609,400.1094,182.9609,404.1094,178.9609" style="stroke:#181818;stroke-width:1;"/><line style="stroke:#181818;stroke-width:1;" x1="58.9946" x2="406.1094" y1="178.9609" y2="178.9609"/><text fill="#000000" font-family="sans-serif" font-size="13" lengthAdjust="spacing" textLength="143.2729" x="65.9946" y="173.895">Read analog vibration</text></g><g class="message" data-participant-1="ESP32" data-participant-2="ESP32"><line style="stroke:#181818;stroke-width:1;" x1="58.9946" x2="100.9946" y1="208.0938" y2="208.0938"/><line style="stroke:#181818;stroke-width:1;" x1="100.9946" x2="100.9946" y1="208.0938" y2="221.0938"/><line style="stroke:#181818;stroke-width:1;" x1="59.9946" x2="100.9946" y1="221.0938" y2="221.0938"/><polygon fill="#181818" points="69.9946,217.0938,59.9946,221.0938,69.9946,225.0938,65.9946,221.0938" style="stroke:#181818;stroke-width:1;"/><text fill="#000000" font-family="sans-serif" font-size="13" lengthAdjust="spacing" textLength="151.2329" x="65.9946" y="203.0278">Process peak detection</text></g><g class="message" data-participant-1="ESP32" data-participant-2="ESP32"><line style="stroke:#181818;stroke-width:1;" x1="58.9946" x2="100.9946" y1="250.2266" y2="250.2266"/><line style="stroke:#181818;stroke-width:1;" x1="100.9946" x2="100.9946" y1="250.2266" y2="263.2266"/><line style="stroke:#181818;stroke-width:1;" x1="59.9946" x2="100.9946" y1="263.2266" y2="263.2266"/><polygon fill="#181818" points="69.9946,259.2266,59.9946,263.2266,69.9946,267.2266,65.9946,263.2266" style="stroke:#181818;stroke-width:1;"/><text fill="#000000" font-family="sans-serif" font-size="13" lengthAdjust="spacing" textLength="148.9478" x="65.9946" y="245.1606">Calculate Richter scale</text></g><g class="message" data-participant-1="ESP32" data-participant-2="ESP32"><line style="stroke:#181818;stroke-width:1;" x1="58.9946" x2="100.9946" y1="292.3594" y2="292.3594"/><line style="stroke:#181818;stroke-width:1;" x1="100.9946" x2="100.9946" y1="292.3594" y2="305.3594"/><line style="stroke:#181818;stroke-width:1;" x1="59.9946" x2="100.9946" y1="305.3594" y2="305.3594"/><polygon fill="#181818" points="69.9946,301.3594,59.9946,305.3594,69.9946,309.3594,65.9946,305.3594" style="stroke:#181818;stroke-width:1;"/><text fill="#000000" font-family="sans-serif" font-size="13" lengthAdjust="spacing" textLength="163.8901" x="65.9946" y="287.2935">Classify earthquake level</text></g><path d="M20,320.3594 L84.4429,320.3594 L84.4429,327.4922 L74.4429,337.4922 L20,337.4922 L20,320.3594" fill="#EEEEEE" style="stroke:#000000;stroke-width:1.5;"/><rect fill="none" height="59.2656" style="stroke:#000000;stroke-width:1.5;" width="210.916" x="20" y="320.3594"/><text fill="#000000" font-family="sans-serif" font-size="13" font-weight="bold" lengthAdjust="spacing" textLength="19.4429" x="35" y="333.4263">alt</text><text fill="#000000" font-family="sans-serif" font-size="11" font-weight="bold" lengthAdjust="spacing" textLength="126.4731" x="99.4429" y="332.5698">[Vibration detected]</text><g class="message" data-participant-1="ESP32" data-participant-2="ESP32"><line style="stroke:#181818;stroke-width:1;" x1="58.9946" x2="100.9946" y1="358.625" y2="358.625"/><line style="stroke:#181818;stroke-width:1;" x1="100.9946" x2="100.9946" y1="358.625" y2="371.625"/><line style="stroke:#181818;stroke-width:1;" x1="59.9946" x2="100.9946" y1="371.625" y2="371.625"/><polygon fill="#181818" points="69.9946,367.625,59.9946,371.625,69.9946,375.625,65.9946,371.625" style="stroke:#181818;stroke-width:1;"/><text fill="#000000" font-family="sans-serif" font-size="13" lengthAdjust="spacing" textLength="152.2485" x="65.9946" y="353.5591">Activate buzzer system</text></g><g class="message" data-participant-1="ESP32" data-participant-2="MQTT"><polygon fill="#181818" points="477.6108,403.7578,487.6108,407.7578,477.6108,411.7578,481.6108,407.7578" style="stroke:#181818;stroke-width:1;"/><line style="stroke:#181818;stroke-width:1;" x1="58.9946" x2="483.6108" y1="407.7578" y2="407.7578"/><text fill="#000000" font-family="sans-serif" font-size="13" lengthAdjust="spacing" textLength="154.9971" x="65.9946" y="402.6919">Publish IMU data (JSON)</text></g><g class="message" data-participant-1="ESP32" data-participant-2="MQTT"><polygon fill="#181818" points="477.6108,432.8906,487.6108,436.8906,477.6108,440.8906,481.6108,436.8906" style="stroke:#181818;stroke-width:1;"/><line style="stroke:#181818;stroke-width:1;" x1="58.9946" x2="483.6108" y1="436.8906" y2="436.8906"/><text fill="#000000" font-family="sans-serif" font-size="13" lengthAdjust="spacing" textLength="188.2017" x="65.9946" y="431.8247">Publish vibration data (JSON)</text></g><g class="message" data-participant-1="MQTT" data-participant-2="Web"><polygon fill="#181818" points="678.3105,462.0234,688.3105,466.0234,678.3105,470.0234,682.3105,466.0234" style="stroke:#181818;stroke-width:1;"/><line style="stroke:#181818;stroke-width:1;" x1="489.6108" x2="684.3105" y1="466.0234" y2="466.0234"/><text fill="#000000" font-family="sans-serif" font-size="13" lengthAdjust="spacing" textLength="176.6997" x="496.6108" y="460.9575">Forward data to dashboard</text></g><g class="message" data-participant-1="MQTT" data-participant-2="Android"><polygon fill="#181818" points="745.1992,491.1563,755.1992,495.1563,745.1992,499.1563,749.1992,495.1563" style="stroke:#181818;stroke-width:1;"/><line style="stroke:#181818;stroke-width:1;" x1="489.6108" x2="751.1992" y1="495.1563" y2="495.1563"/><text fill="#000000" font-family="sans-serif" font-size="13" lengthAdjust="spacing" textLength="180.394" x="496.6108" y="490.0903">Forward data to mobile app</text></g><!--SRC=[VPBTJuCm5CNV-IlkepwOiFaHimUJnSn4aodkmprVskjeLcXj2uRzzPPkJ9Xpl027t-azfrIZSO89ZOM3oJov7aQweqoJvLry6_Uq-UfcUAmCxkD1qdU-BnOzOKLfxtrSSAC4ZoAfb8P9HQQ6GHpdDW9_XIXmzT0cW17C23aWOoJ9g9mS6U3ey2o-hesoJ6awWOOUBSZ5MZYKK8dKe1EgE6P3mqEA0gLQT-0-lNiOGM8K8sj14sw0-yJixyej-uYIbH8TmKomh2bd6Khw1vPehVYiWVo6PbybRWWaLIHtGL0w-6YpxGSJ3vzEBZVskQfcT5fkjytasZhA0qy5FohN_DYcMvbAOJDudYx3tiB5o_pjzV8iM_rcwZY29P3UuK-9Dpmfyus6xp2d_DrcgV9AZzsVe1Dyhb8X2L3ho1Vu0G00]--></g></svg>