<svg xmlns="http://www.w3.org/2000/svg" xmlns:xlink="http://www.w3.org/1999/xlink" contentStyleType="text/css" data-diagram-type="CLASS" height="687px" preserveAspectRatio="none" style="width:907px;height:687px;background:#FFFFFF;" version="1.1" viewBox="0 0 907 687" width="907px" zoomAndPan="magnify"><defs/><g><!--class ESP32--><g class="entity" data-entity="ESP32" data-source-line="3" data-uid="ent0002" id="entity_ESP32"><rect fill="#F1F1F1" height="48" rx="2.5" ry="2.5" style="stroke:#181818;stroke-width:0.5;" width="75.9893" x="449.74" y="7"/><ellipse cx="464.74" cy="23" fill="#ADD1B2" rx="11" ry="11" style="stroke:#181818;stroke-width:1;"/><path d="M467.7088,28.6406 Q467.1306,28.9375 466.49,29.0781 Q465.8494,29.2344 465.1463,29.2344 Q462.6463,29.2344 461.3181,27.5938 Q460.0056,25.9375 460.0056,22.8125 Q460.0056,19.6875 461.3181,18.0313 Q462.6463,16.375 465.1463,16.375 Q465.8494,16.375 466.49,16.5313 Q467.1463,16.6875 467.7088,16.9844 L467.7088,19.7031 Q467.0838,19.125 466.49,18.8594 Q465.8963,18.5781 465.2713,18.5781 Q463.9275,18.5781 463.24,19.6563 Q462.5525,20.7188 462.5525,22.8125 Q462.5525,24.9063 463.24,25.9844 Q463.9275,27.0469 465.2713,27.0469 Q465.8963,27.0469 466.49,26.7813 Q467.0838,26.5 467.7088,25.9219 L467.7088,28.6406 Z " fill="#000000"/><text fill="#000000" font-family="sans-serif" font-size="14" lengthAdjust="spacing" textLength="43.9893" x="478.74" y="27.8467">ESP32</text><line style="stroke:#181818;stroke-width:0.5;" x1="450.74" x2="524.7293" y1="39" y2="39"/><line style="stroke:#181818;stroke-width:0.5;" x1="450.74" x2="524.7293" y1="47" y2="47"/></g><!--class MPU6050--><g class="entity" data-entity="MPU6050" data-source-line="4" data-uid="ent0003" id="entity_MPU6050"><rect fill="#F1F1F1" height="48" rx="2.5" ry="2.5" style="stroke:#181818;stroke-width:0.5;" width="98.3975" x="143.54" y="132"/><ellipse cx="158.54" cy="148" fill="#ADD1B2" rx="11" ry="11" style="stroke:#181818;stroke-width:1;"/><path d="M161.5088,153.6406 Q160.9306,153.9375 160.29,154.0781 Q159.6494,154.2344 158.9463,154.2344 Q156.4463,154.2344 155.1181,152.5938 Q153.8056,150.9375 153.8056,147.8125 Q153.8056,144.6875 155.1181,143.0313 Q156.4463,141.375 158.9463,141.375 Q159.6494,141.375 160.29,141.5313 Q160.9463,141.6875 161.5088,141.9844 L161.5088,144.7031 Q160.8838,144.125 160.29,143.8594 Q159.6963,143.5781 159.0713,143.5781 Q157.7275,143.5781 157.04,144.6563 Q156.3525,145.7188 156.3525,147.8125 Q156.3525,149.9063 157.04,150.9844 Q157.7275,152.0469 159.0713,152.0469 Q159.6963,152.0469 160.29,151.7813 Q160.8838,151.5 161.5088,150.9219 L161.5088,153.6406 Z " fill="#000000"/><text fill="#000000" font-family="sans-serif" font-size="14" lengthAdjust="spacing" textLength="66.3975" x="172.54" y="152.8467">MPU6050</text><line style="stroke:#181818;stroke-width:0.5;" x1="144.54" x2="240.9375" y1="164" y2="164"/><line style="stroke:#181818;stroke-width:0.5;" x1="144.54" x2="240.9375" y1="172" y2="172"/></g><!--class SW420--><g class="entity" data-entity="SW420" data-source-line="5" data-uid="ent0005" id="entity_SW420"><rect fill="#F1F1F1" height="48" rx="2.5" ry="2.5" style="stroke:#181818;stroke-width:0.5;" width="81.4512" x="298.01" y="132"/><ellipse cx="313.01" cy="148" fill="#ADD1B2" rx="11" ry="11" style="stroke:#181818;stroke-width:1;"/><path d="M315.9788,153.6406 Q315.4006,153.9375 314.76,154.0781 Q314.1194,154.2344 313.4163,154.2344 Q310.9163,154.2344 309.5881,152.5938 Q308.2756,150.9375 308.2756,147.8125 Q308.2756,144.6875 309.5881,143.0313 Q310.9163,141.375 313.4163,141.375 Q314.1194,141.375 314.76,141.5313 Q315.4163,141.6875 315.9788,141.9844 L315.9788,144.7031 Q315.3538,144.125 314.76,143.8594 Q314.1663,143.5781 313.5413,143.5781 Q312.1975,143.5781 311.51,144.6563 Q310.8225,145.7188 310.8225,147.8125 Q310.8225,149.9063 311.51,150.9844 Q312.1975,152.0469 313.5413,152.0469 Q314.1663,152.0469 314.76,151.7813 Q315.3538,151.5 315.9788,150.9219 L315.9788,153.6406 Z " fill="#000000"/><text fill="#000000" font-family="sans-serif" font-size="14" lengthAdjust="spacing" textLength="49.4512" x="327.01" y="152.8467">SW420</text><line style="stroke:#181818;stroke-width:0.5;" x1="299.01" x2="378.4612" y1="164" y2="164"/><line style="stroke:#181818;stroke-width:0.5;" x1="299.01" x2="378.4612" y1="172" y2="172"/></g><!--class SW1801P--><g class="entity" data-entity="SW1801P" data-source-line="6" data-uid="ent0007" id="entity_SW1801P"><rect fill="#F1F1F1" height="48" rx="2.5" ry="2.5" style="stroke:#181818;stroke-width:0.5;" width="98.8008" x="438.34" y="132"/><ellipse cx="453.34" cy="148" fill="#ADD1B2" rx="11" ry="11" style="stroke:#181818;stroke-width:1;"/><path d="M456.3088,153.6406 Q455.7306,153.9375 455.09,154.0781 Q454.4494,154.2344 453.7463,154.2344 Q451.2463,154.2344 449.9181,152.5938 Q448.6056,150.9375 448.6056,147.8125 Q448.6056,144.6875 449.9181,143.0313 Q451.2463,141.375 453.7463,141.375 Q454.4494,141.375 455.09,141.5313 Q455.7463,141.6875 456.3088,141.9844 L456.3088,144.7031 Q455.6838,144.125 455.09,143.8594 Q454.4963,143.5781 453.8713,143.5781 Q452.5275,143.5781 451.84,144.6563 Q451.1525,145.7188 451.1525,147.8125 Q451.1525,149.9063 451.84,150.9844 Q452.5275,152.0469 453.8713,152.0469 Q454.4963,152.0469 455.09,151.7813 Q455.6838,151.5 456.3088,150.9219 L456.3088,153.6406 Z " fill="#000000"/><text fill="#000000" font-family="sans-serif" font-size="14" lengthAdjust="spacing" textLength="66.8008" x="467.34" y="152.8467">SW1801P</text><line style="stroke:#181818;stroke-width:0.5;" x1="439.34" x2="536.1408" y1="164" y2="164"/><line style="stroke:#181818;stroke-width:0.5;" x1="439.34" x2="536.1408" y1="172" y2="172"/></g><!--class Buzzer--><g class="entity" data-entity="Buzzer" data-source-line="7" data-uid="ent0009" id="entity_Buzzer"><rect fill="#F1F1F1" height="48" rx="2.5" ry="2.5" style="stroke:#181818;stroke-width:0.5;" width="79.5439" x="582.97" y="132"/><ellipse cx="597.97" cy="148" fill="#ADD1B2" rx="11" ry="11" style="stroke:#181818;stroke-width:1;"/><path d="M600.9388,153.6406 Q600.3606,153.9375 599.72,154.0781 Q599.0794,154.2344 598.3763,154.2344 Q595.8763,154.2344 594.5481,152.5938 Q593.2356,150.9375 593.2356,147.8125 Q593.2356,144.6875 594.5481,143.0313 Q595.8763,141.375 598.3763,141.375 Q599.0794,141.375 599.72,141.5313 Q600.3763,141.6875 600.9388,141.9844 L600.9388,144.7031 Q600.3138,144.125 599.72,143.8594 Q599.1263,143.5781 598.5013,143.5781 Q597.1575,143.5781 596.47,144.6563 Q595.7825,145.7188 595.7825,147.8125 Q595.7825,149.9063 596.47,150.9844 Q597.1575,152.0469 598.5013,152.0469 Q599.1263,152.0469 599.72,151.7813 Q600.3138,151.5 600.9388,150.9219 L600.9388,153.6406 Z " fill="#000000"/><text fill="#000000" font-family="sans-serif" font-size="14" lengthAdjust="spacing" textLength="47.5439" x="611.97" y="152.8467">Buzzer</text><line style="stroke:#181818;stroke-width:0.5;" x1="583.97" x2="661.5139" y1="164" y2="164"/><line style="stroke:#181818;stroke-width:0.5;" x1="583.97" x2="661.5139" y1="172" y2="172"/></g><!--class WiFi--><g class="entity" data-entity="WiFi" data-source-line="8" data-uid="ent0011" id="entity_WiFi"><rect fill="#F1F1F1" height="48" rx="2.5" ry="2.5" style="stroke:#181818;stroke-width:0.5;" width="61.6748" x="746.9" y="132"/><ellipse cx="761.9" cy="148" fill="#ADD1B2" rx="11" ry="11" style="stroke:#181818;stroke-width:1;"/><path d="M764.8688,153.6406 Q764.2906,153.9375 763.65,154.0781 Q763.0094,154.2344 762.3063,154.2344 Q759.8063,154.2344 758.4781,152.5938 Q757.1656,150.9375 757.1656,147.8125 Q757.1656,144.6875 758.4781,143.0313 Q759.8063,141.375 762.3063,141.375 Q763.0094,141.375 763.65,141.5313 Q764.3063,141.6875 764.8688,141.9844 L764.8688,144.7031 Q764.2438,144.125 763.65,143.8594 Q763.0563,143.5781 762.4313,143.5781 Q761.0875,143.5781 760.4,144.6563 Q759.7125,145.7188 759.7125,147.8125 Q759.7125,149.9063 760.4,150.9844 Q761.0875,152.0469 762.4313,152.0469 Q763.0563,152.0469 763.65,151.7813 Q764.2438,151.5 764.8688,150.9219 L764.8688,153.6406 Z " fill="#000000"/><text fill="#000000" font-family="sans-serif" font-size="14" lengthAdjust="spacing" textLength="29.6748" x="775.9" y="152.8467">WiFi</text><line style="stroke:#181818;stroke-width:0.5;" x1="747.9" x2="807.5748" y1="164" y2="164"/><line style="stroke:#181818;stroke-width:0.5;" x1="747.9" x2="807.5748" y1="172" y2="172"/></g><!--class MQTT--><g class="entity" data-entity="MQTT" data-source-line="10" data-uid="ent0013" id="entity_MQTT"><rect fill="#F1F1F1" height="48" rx="2.5" ry="2.5" style="stroke:#181818;stroke-width:0.5;" width="72.2021" x="741.64" y="257"/><ellipse cx="756.64" cy="273" fill="#ADD1B2" rx="11" ry="11" style="stroke:#181818;stroke-width:1;"/><path d="M759.6088,278.6406 Q759.0306,278.9375 758.39,279.0781 Q757.7494,279.2344 757.0463,279.2344 Q754.5463,279.2344 753.2181,277.5938 Q751.9056,275.9375 751.9056,272.8125 Q751.9056,269.6875 753.2181,268.0313 Q754.5463,266.375 757.0463,266.375 Q757.7494,266.375 758.39,266.5313 Q759.0463,266.6875 759.6088,266.9844 L759.6088,269.7031 Q758.9838,269.125 758.39,268.8594 Q757.7963,268.5781 757.1713,268.5781 Q755.8275,268.5781 755.14,269.6563 Q754.4525,270.7188 754.4525,272.8125 Q754.4525,274.9063 755.14,275.9844 Q755.8275,277.0469 757.1713,277.0469 Q757.7963,277.0469 758.39,276.7813 Q758.9838,276.5 759.6088,275.9219 L759.6088,278.6406 Z " fill="#000000"/><text fill="#000000" font-family="sans-serif" font-size="14" lengthAdjust="spacing" textLength="40.2021" x="770.64" y="277.8467">MQTT</text><line style="stroke:#181818;stroke-width:0.5;" x1="742.64" x2="812.8421" y1="289" y2="289"/><line style="stroke:#181818;stroke-width:0.5;" x1="742.64" x2="812.8421" y1="297" y2="297"/></g><!--class Dashboard--><g class="entity" data-entity="Dashboard" data-source-line="11" data-uid="ent0015" id="entity_Dashboard"><rect fill="#F1F1F1" height="48" rx="2.5" ry="2.5" style="stroke:#181818;stroke-width:0.5;" width="108.2002" x="650.64" y="382"/><ellipse cx="665.64" cy="398" fill="#ADD1B2" rx="11" ry="11" style="stroke:#181818;stroke-width:1;"/><path d="M668.6088,403.6406 Q668.0306,403.9375 667.39,404.0781 Q666.7494,404.2344 666.0463,404.2344 Q663.5463,404.2344 662.2181,402.5938 Q660.9056,400.9375 660.9056,397.8125 Q660.9056,394.6875 662.2181,393.0313 Q663.5463,391.375 666.0463,391.375 Q666.7494,391.375 667.39,391.5313 Q668.0463,391.6875 668.6088,391.9844 L668.6088,394.7031 Q667.9838,394.125 667.39,393.8594 Q666.7963,393.5781 666.1713,393.5781 Q664.8275,393.5781 664.14,394.6563 Q663.4525,395.7188 663.4525,397.8125 Q663.4525,399.9063 664.14,400.9844 Q664.8275,402.0469 666.1713,402.0469 Q666.7963,402.0469 667.39,401.7813 Q667.9838,401.5 668.6088,400.9219 L668.6088,403.6406 Z " fill="#000000"/><text fill="#000000" font-family="sans-serif" font-size="14" lengthAdjust="spacing" textLength="76.2002" x="679.64" y="402.8467">Dashboard</text><line style="stroke:#181818;stroke-width:0.5;" x1="651.64" x2="757.8402" y1="414" y2="414"/><line style="stroke:#181818;stroke-width:0.5;" x1="651.64" x2="757.8402" y1="422" y2="422"/></g><!--class App--><g class="entity" data-entity="App" data-source-line="12" data-uid="ent0017" id="entity_App"><rect fill="#F1F1F1" height="48" rx="2.5" ry="2.5" style="stroke:#181818;stroke-width:0.5;" width="59.3506" x="820.06" y="382"/><ellipse cx="835.06" cy="398" fill="#ADD1B2" rx="11" ry="11" style="stroke:#181818;stroke-width:1;"/><path d="M838.0288,403.6406 Q837.4506,403.9375 836.81,404.0781 Q836.1694,404.2344 835.4663,404.2344 Q832.9663,404.2344 831.6381,402.5938 Q830.3256,400.9375 830.3256,397.8125 Q830.3256,394.6875 831.6381,393.0313 Q832.9663,391.375 835.4663,391.375 Q836.1694,391.375 836.81,391.5313 Q837.4663,391.6875 838.0288,391.9844 L838.0288,394.7031 Q837.4038,394.125 836.81,393.8594 Q836.2163,393.5781 835.5913,393.5781 Q834.2475,393.5781 833.56,394.6563 Q832.8725,395.7188 832.8725,397.8125 Q832.8725,399.9063 833.56,400.9844 Q834.2475,402.0469 835.5913,402.0469 Q836.2163,402.0469 836.81,401.7813 Q837.4038,401.5 838.0288,400.9219 L838.0288,403.6406 Z " fill="#000000"/><text fill="#000000" font-family="sans-serif" font-size="14" lengthAdjust="spacing" textLength="27.3506" x="849.06" y="402.8467">App</text><line style="stroke:#181818;stroke-width:0.5;" x1="821.06" x2="878.4106" y1="414" y2="414"/><line style="stroke:#181818;stroke-width:0.5;" x1="821.06" x2="878.4106" y1="422" y2="422"/></g><!--class Accel--><g class="entity" data-entity="Accel" data-source-line="14" data-uid="ent0019" id="entity_Accel"><rect fill="#F1F1F1" height="48" rx="2.5" ry="2.5" style="stroke:#181818;stroke-width:0.5;" width="69.4746" x="7" y="257"/><ellipse cx="22" cy="273" fill="#ADD1B2" rx="11" ry="11" style="stroke:#181818;stroke-width:1;"/><path d="M24.9688,278.6406 Q24.3906,278.9375 23.75,279.0781 Q23.1094,279.2344 22.4063,279.2344 Q19.9063,279.2344 18.5781,277.5938 Q17.2656,275.9375 17.2656,272.8125 Q17.2656,269.6875 18.5781,268.0313 Q19.9063,266.375 22.4063,266.375 Q23.1094,266.375 23.75,266.5313 Q24.4063,266.6875 24.9688,266.9844 L24.9688,269.7031 Q24.3438,269.125 23.75,268.8594 Q23.1563,268.5781 22.5313,268.5781 Q21.1875,268.5781 20.5,269.6563 Q19.8125,270.7188 19.8125,272.8125 Q19.8125,274.9063 20.5,275.9844 Q21.1875,277.0469 22.5313,277.0469 Q23.1563,277.0469 23.75,276.7813 Q24.3438,276.5 24.9688,275.9219 L24.9688,278.6406 Z " fill="#000000"/><text fill="#000000" font-family="sans-serif" font-size="14" lengthAdjust="spacing" textLength="37.4746" x="36" y="277.8467">Accel</text><line style="stroke:#181818;stroke-width:0.5;" x1="8" x2="75.4746" y1="289" y2="289"/><line style="stroke:#181818;stroke-width:0.5;" x1="8" x2="75.4746" y1="297" y2="297"/></g><!--class Gyro--><g class="entity" data-entity="Gyro" data-source-line="15" data-uid="ent0021" id="entity_Gyro"><rect fill="#F1F1F1" height="48" rx="2.5" ry="2.5" style="stroke:#181818;stroke-width:0.5;" width="65.4551" x="154.01" y="257"/><ellipse cx="169.01" cy="273" fill="#ADD1B2" rx="11" ry="11" style="stroke:#181818;stroke-width:1;"/><path d="M171.9788,278.6406 Q171.4006,278.9375 170.76,279.0781 Q170.1194,279.2344 169.4163,279.2344 Q166.9163,279.2344 165.5881,277.5938 Q164.2756,275.9375 164.2756,272.8125 Q164.2756,269.6875 165.5881,268.0313 Q166.9163,266.375 169.4163,266.375 Q170.1194,266.375 170.76,266.5313 Q171.4163,266.6875 171.9788,266.9844 L171.9788,269.7031 Q171.3538,269.125 170.76,268.8594 Q170.1663,268.5781 169.5413,268.5781 Q168.1975,268.5781 167.51,269.6563 Q166.8225,270.7188 166.8225,272.8125 Q166.8225,274.9063 167.51,275.9844 Q168.1975,277.0469 169.5413,277.0469 Q170.1663,277.0469 170.76,276.7813 Q171.3538,276.5 171.9788,275.9219 L171.9788,278.6406 Z " fill="#000000"/><text fill="#000000" font-family="sans-serif" font-size="14" lengthAdjust="spacing" textLength="33.4551" x="183.01" y="277.8467">Gyro</text><line style="stroke:#181818;stroke-width:0.5;" x1="155.01" x2="218.4651" y1="289" y2="289"/><line style="stroke:#181818;stroke-width:0.5;" x1="155.01" x2="218.4651" y1="297" y2="297"/></g><!--class DigVib--><g class="entity" data-entity="DigVib" data-source-line="16" data-uid="ent0023" id="entity_DigVib"><rect fill="#F1F1F1" height="48" rx="2.5" ry="2.5" style="stroke:#181818;stroke-width:0.5;" width="77.9102" x="299.78" y="257"/><ellipse cx="314.78" cy="273" fill="#ADD1B2" rx="11" ry="11" style="stroke:#181818;stroke-width:1;"/><path d="M317.7488,278.6406 Q317.1706,278.9375 316.53,279.0781 Q315.8894,279.2344 315.1863,279.2344 Q312.6863,279.2344 311.3581,277.5938 Q310.0456,275.9375 310.0456,272.8125 Q310.0456,269.6875 311.3581,268.0313 Q312.6863,266.375 315.1863,266.375 Q315.8894,266.375 316.53,266.5313 Q317.1863,266.6875 317.7488,266.9844 L317.7488,269.7031 Q317.1238,269.125 316.53,268.8594 Q315.9363,268.5781 315.3113,268.5781 Q313.9675,268.5781 313.28,269.6563 Q312.5925,270.7188 312.5925,272.8125 Q312.5925,274.9063 313.28,275.9844 Q313.9675,277.0469 315.3113,277.0469 Q315.9363,277.0469 316.53,276.7813 Q317.1238,276.5 317.7488,275.9219 L317.7488,278.6406 Z " fill="#000000"/><text fill="#000000" font-family="sans-serif" font-size="14" lengthAdjust="spacing" textLength="45.9102" x="328.78" y="277.8467">DigVib</text><line style="stroke:#181818;stroke-width:0.5;" x1="300.78" x2="376.6902" y1="289" y2="289"/><line style="stroke:#181818;stroke-width:0.5;" x1="300.78" x2="376.6902" y1="297" y2="297"/></g><!--class AnaVib--><g class="entity" data-entity="AnaVib" data-source-line="17" data-uid="ent0025" id="entity_AnaVib"><rect fill="#F1F1F1" height="48" rx="2.5" ry="2.5" style="stroke:#181818;stroke-width:0.5;" width="81.3828" x="448.05" y="257"/><ellipse cx="463.05" cy="273" fill="#ADD1B2" rx="11" ry="11" style="stroke:#181818;stroke-width:1;"/><path d="M466.0188,278.6406 Q465.4406,278.9375 464.8,279.0781 Q464.1594,279.2344 463.4563,279.2344 Q460.9563,279.2344 459.6281,277.5938 Q458.3156,275.9375 458.3156,272.8125 Q458.3156,269.6875 459.6281,268.0313 Q460.9563,266.375 463.4563,266.375 Q464.1594,266.375 464.8,266.5313 Q465.4563,266.6875 466.0188,266.9844 L466.0188,269.7031 Q465.3938,269.125 464.8,268.8594 Q464.2063,268.5781 463.5813,268.5781 Q462.2375,268.5781 461.55,269.6563 Q460.8625,270.7188 460.8625,272.8125 Q460.8625,274.9063 461.55,275.9844 Q462.2375,277.0469 463.5813,277.0469 Q464.2063,277.0469 464.8,276.7813 Q465.3938,276.5 466.0188,275.9219 L466.0188,278.6406 Z " fill="#000000"/><text fill="#000000" font-family="sans-serif" font-size="14" lengthAdjust="spacing" textLength="49.3828" x="477.05" y="277.8467">AnaVib</text><line style="stroke:#181818;stroke-width:0.5;" x1="449.05" x2="528.4328" y1="289" y2="289"/><line style="stroke:#181818;stroke-width:0.5;" x1="449.05" x2="528.4328" y1="297" y2="297"/></g><!--class Peak--><g class="entity" data-entity="Peak" data-source-line="19" data-uid="ent0027" id="entity_Peak"><rect fill="#F1F1F1" height="48" rx="2.5" ry="2.5" style="stroke:#181818;stroke-width:0.5;" width="65.7422" x="148.87" y="382"/><ellipse cx="163.87" cy="398" fill="#ADD1B2" rx="11" ry="11" style="stroke:#181818;stroke-width:1;"/><path d="M166.8388,403.6406 Q166.2606,403.9375 165.62,404.0781 Q164.9794,404.2344 164.2763,404.2344 Q161.7763,404.2344 160.4481,402.5938 Q159.1356,400.9375 159.1356,397.8125 Q159.1356,394.6875 160.4481,393.0313 Q161.7763,391.375 164.2763,391.375 Q164.9794,391.375 165.62,391.5313 Q166.2763,391.6875 166.8388,391.9844 L166.8388,394.7031 Q166.2138,394.125 165.62,393.8594 Q165.0263,393.5781 164.4013,393.5781 Q163.0575,393.5781 162.37,394.6563 Q161.6825,395.7188 161.6825,397.8125 Q161.6825,399.9063 162.37,400.9844 Q163.0575,402.0469 164.4013,402.0469 Q165.0263,402.0469 165.62,401.7813 Q166.2138,401.5 166.8388,400.9219 L166.8388,403.6406 Z " fill="#000000"/><text fill="#000000" font-family="sans-serif" font-size="14" lengthAdjust="spacing" textLength="33.7422" x="177.87" y="402.8467">Peak</text><line style="stroke:#181818;stroke-width:0.5;" x1="149.87" x2="213.6122" y1="414" y2="414"/><line style="stroke:#181818;stroke-width:0.5;" x1="149.87" x2="213.6122" y1="422" y2="422"/></g><!--class Validation--><g class="entity" data-entity="Validation" data-source-line="21" data-uid="ent0030" id="entity_Validation"><rect fill="#F1F1F1" height="48" rx="2.5" ry="2.5" style="stroke:#181818;stroke-width:0.5;" width="102.2188" x="289.63" y="382"/><ellipse cx="304.63" cy="398" fill="#ADD1B2" rx="11" ry="11" style="stroke:#181818;stroke-width:1;"/><path d="M307.5988,403.6406 Q307.0206,403.9375 306.38,404.0781 Q305.7394,404.2344 305.0363,404.2344 Q302.5363,404.2344 301.2081,402.5938 Q299.8956,400.9375 299.8956,397.8125 Q299.8956,394.6875 301.2081,393.0313 Q302.5363,391.375 305.0363,391.375 Q305.7394,391.375 306.38,391.5313 Q307.0363,391.6875 307.5988,391.9844 L307.5988,394.7031 Q306.9738,394.125 306.38,393.8594 Q305.7863,393.5781 305.1613,393.5781 Q303.8175,393.5781 303.13,394.6563 Q302.4425,395.7188 302.4425,397.8125 Q302.4425,399.9063 303.13,400.9844 Q303.8175,402.0469 305.1613,402.0469 Q305.7863,402.0469 306.38,401.7813 Q306.9738,401.5 307.5988,400.9219 L307.5988,403.6406 Z " fill="#000000"/><text fill="#000000" font-family="sans-serif" font-size="14" lengthAdjust="spacing" textLength="70.2188" x="318.63" y="402.8467">Validation</text><line style="stroke:#181818;stroke-width:0.5;" x1="290.63" x2="390.8488" y1="414" y2="414"/><line style="stroke:#181818;stroke-width:0.5;" x1="290.63" x2="390.8488" y1="422" y2="422"/></g><!--class Scale--><g class="entity" data-entity="Scale" data-source-line="24" data-uid="ent0033" id="entity_Scale"><rect fill="#F1F1F1" height="48" rx="2.5" ry="2.5" style="stroke:#181818;stroke-width:0.5;" width="69.666" x="169.9" y="507"/><ellipse cx="184.9" cy="523" fill="#ADD1B2" rx="11" ry="11" style="stroke:#181818;stroke-width:1;"/><path d="M187.8688,528.6406 Q187.2906,528.9375 186.65,529.0781 Q186.0094,529.2344 185.3063,529.2344 Q182.8063,529.2344 181.4781,527.5938 Q180.1656,525.9375 180.1656,522.8125 Q180.1656,519.6875 181.4781,518.0313 Q182.8063,516.375 185.3063,516.375 Q186.0094,516.375 186.65,516.5313 Q187.3063,516.6875 187.8688,516.9844 L187.8688,519.7031 Q187.2438,519.125 186.65,518.8594 Q186.0563,518.5781 185.4313,518.5781 Q184.0875,518.5781 183.4,519.6563 Q182.7125,520.7188 182.7125,522.8125 Q182.7125,524.9063 183.4,525.9844 Q184.0875,527.0469 185.4313,527.0469 Q186.0563,527.0469 186.65,526.7813 Q187.2438,526.5 187.8688,525.9219 L187.8688,528.6406 Z " fill="#000000"/><text fill="#000000" font-family="sans-serif" font-size="14" lengthAdjust="spacing" textLength="37.666" x="198.9" y="527.8467">Scale</text><line style="stroke:#181818;stroke-width:0.5;" x1="170.9" x2="238.566" y1="539" y2="539"/><line style="stroke:#181818;stroke-width:0.5;" x1="170.9" x2="238.566" y1="547" y2="547"/></g><!--class Classify--><g class="entity" data-entity="Classify" data-source-line="25" data-uid="ent0035" id="entity_Classify"><rect fill="#F1F1F1" height="48" rx="2.5" ry="2.5" style="stroke:#181818;stroke-width:0.5;" width="85.9355" x="285.77" y="507"/><ellipse cx="300.77" cy="523" fill="#ADD1B2" rx="11" ry="11" style="stroke:#181818;stroke-width:1;"/><path d="M303.7388,528.6406 Q303.1606,528.9375 302.52,529.0781 Q301.8794,529.2344 301.1763,529.2344 Q298.6763,529.2344 297.3481,527.5938 Q296.0356,525.9375 296.0356,522.8125 Q296.0356,519.6875 297.3481,518.0313 Q298.6763,516.375 301.1763,516.375 Q301.8794,516.375 302.52,516.5313 Q303.1763,516.6875 303.7388,516.9844 L303.7388,519.7031 Q303.1138,519.125 302.52,518.8594 Q301.9263,518.5781 301.3013,518.5781 Q299.9575,518.5781 299.27,519.6563 Q298.5825,520.7188 298.5825,522.8125 Q298.5825,524.9063 299.27,525.9844 Q299.9575,527.0469 301.3013,527.0469 Q301.9263,527.0469 302.52,526.7813 Q303.1138,526.5 303.7388,525.9219 L303.7388,528.6406 Z " fill="#000000"/><text fill="#000000" font-family="sans-serif" font-size="14" lengthAdjust="spacing" textLength="53.9355" x="314.77" y="527.8467">Classify</text><line style="stroke:#181818;stroke-width:0.5;" x1="286.77" x2="370.7055" y1="539" y2="539"/><line style="stroke:#181818;stroke-width:0.5;" x1="286.77" x2="370.7055" y1="547" y2="547"/></g><!--class Alert--><g class="entity" data-entity="Alert" data-source-line="26" data-uid="ent0037" id="entity_Alert"><rect fill="#F1F1F1" height="48" rx="2.5" ry="2.5" style="stroke:#181818;stroke-width:0.5;" width="65.3252" x="228.07" y="632"/><ellipse cx="243.07" cy="648" fill="#ADD1B2" rx="11" ry="11" style="stroke:#181818;stroke-width:1;"/><path d="M246.0388,653.6406 Q245.4606,653.9375 244.82,654.0781 Q244.1794,654.2344 243.4763,654.2344 Q240.9763,654.2344 239.6481,652.5938 Q238.3356,650.9375 238.3356,647.8125 Q238.3356,644.6875 239.6481,643.0313 Q240.9763,641.375 243.4763,641.375 Q244.1794,641.375 244.82,641.5313 Q245.4763,641.6875 246.0388,641.9844 L246.0388,644.7031 Q245.4138,644.125 244.82,643.8594 Q244.2263,643.5781 243.6013,643.5781 Q242.2575,643.5781 241.57,644.6563 Q240.8825,645.7188 240.8825,647.8125 Q240.8825,649.9063 241.57,650.9844 Q242.2575,652.0469 243.6013,652.0469 Q244.2263,652.0469 244.82,651.7813 Q245.4138,651.5 246.0388,650.9219 L246.0388,653.6406 Z " fill="#000000"/><text fill="#000000" font-family="sans-serif" font-size="14" lengthAdjust="spacing" textLength="33.3252" x="257.07" y="652.8467">Alert</text><line style="stroke:#181818;stroke-width:0.5;" x1="229.07" x2="292.3952" y1="664" y2="664"/><line style="stroke:#181818;stroke-width:0.5;" x1="229.07" x2="292.3952" y1="672" y2="672"/></g><!--link ESP32 to MPU6050--><g class="link" data-entity-1="ESP32" data-entity-2="MPU6050" data-source-line="4" data-uid="lnk4" id="link_ESP32_MPU6050"><path codeLine="4" d="M449.29,35.9 C404.71,41.66 330.02,55.16 272.74,85 C250.15,96.77 232.8579,111.8933 217.8479,127.2933" fill="none" id="ESP32-to-MPU6050" style="stroke:#181818;stroke-width:1;"/><polygon fill="#181818" points="213.66,131.59,222.8063,127.9369,217.1499,128.0094,217.0774,122.353,213.66,131.59" style="stroke:#181818;stroke-width:1;"/><text fill="#000000" font-family="sans-serif" font-size="13" lengthAdjust="spacing" textLength="73.2583" x="273.74" y="98.0669">IMU Sensor</text></g><!--link ESP32 to SW420--><g class="link" data-entity-1="ESP32" data-entity-2="SW420" data-source-line="5" data-uid="lnk6" id="link_ESP32_SW420"><path codeLine="5" d="M449.32,40.9 C423.34,48.68 389.86,62.36 367.74,85 C355.23,97.8 349.4482,110.9723 345.2582,125.9323" fill="none" id="ESP32-to-SW420" style="stroke:#181818;stroke-width:1;"/><polygon fill="#181818" points="343.64,131.71,349.9191,124.1223,344.9885,126.8953,342.2155,121.9647,343.64,131.71" style="stroke:#181818;stroke-width:1;"/><text fill="#000000" font-family="sans-serif" font-size="13" lengthAdjust="spacing" textLength="107.6626" x="368.74" y="98.0669">Vibration Sensor</text></g><!--link ESP32 to SW1801P--><g class="link" data-entity-1="ESP32" data-entity-2="SW1801P" data-source-line="6" data-uid="lnk8" id="link_ESP32_SW1801P"><path codeLine="6" d="M486.12,55.47 C485.56,64.67 485.01,75.33 484.74,85 C484.3,100.56 484.6716,112.0719 485.5316,125.6819" fill="none" id="ESP32-to-SW1801P" style="stroke:#181818;stroke-width:1;"/><polygon fill="#181818" points="485.91,131.67,489.3345,122.4357,485.5947,126.68,481.3504,122.9402,485.91,131.67" style="stroke:#181818;stroke-width:1;"/><text fill="#000000" font-family="sans-serif" font-size="13" lengthAdjust="spacing" textLength="93.6089" x="485.74" y="98.0669">Analog Sensor</text></g><!--link ESP32 to Buzzer--><g class="link" data-entity-1="ESP32" data-entity-2="Buzzer" data-source-line="7" data-uid="lnk10" id="link_ESP32_Buzzer"><path codeLine="7" d="M526.06,47.11 C545.08,56.01 567.42,68.74 583.74,85 C597.04,98.25 604.7125,111.5219 611.3025,126.2719" fill="none" id="ESP32-to-Buzzer" style="stroke:#181818;stroke-width:1;"/><polygon fill="#181818" points="613.75,131.75,613.7308,121.9012,611.7104,127.1849,606.4267,125.1645,613.75,131.75" style="stroke:#181818;stroke-width:1;"/><text fill="#000000" font-family="sans-serif" font-size="13" lengthAdjust="spacing" textLength="130.7173" x="598.74" y="98.0669">Dual Buzzer System</text></g><!--link ESP32 to WiFi--><g class="link" data-entity-1="ESP32" data-entity-2="WiFi" data-source-line="8" data-uid="lnk12" id="link_ESP32_WiFi"><path codeLine="8" d="M526.11,36.27 C587.53,43.72 704.4,60.68 737.74,85 C753.45,96.47 761.6618,110.5531 767.9218,126.1231" fill="none" id="ESP32-to-WiFi" style="stroke:#181818;stroke-width:1;"/><polygon fill="#181818" points="770.16,131.69,770.514,121.8475,768.2948,127.0509,763.0914,124.8318,770.16,131.69" style="stroke:#181818;stroke-width:1;"/></g><!--link WiFi to MQTT--><g class="link" data-entity-1="WiFi" data-entity-2="MQTT" data-source-line="10" data-uid="lnk14" id="link_WiFi_MQTT"><path codeLine="10" d="M777.74,180.42 C777.74,202.31 777.74,228.8 777.74,250.66" fill="none" id="WiFi-to-MQTT" style="stroke:#181818;stroke-width:1;"/><polygon fill="#181818" points="777.74,256.66,781.74,247.66,777.74,251.66,773.74,247.66,777.74,256.66" style="stroke:#181818;stroke-width:1;"/><text fill="#000000" font-family="sans-serif" font-size="13" lengthAdjust="spacing" textLength="84.5508" x="778.74" y="223.0669">MQTT Broker</text></g><!--link MQTT to Dashboard--><g class="link" data-entity-1="MQTT" data-entity-2="Dashboard" data-source-line="11" data-uid="lnk16" id="link_MQTT_Dashboard"><path codeLine="11" d="M741.17,296.5 C724.76,305.07 707.04,317.68 697.74,335 C690.11,349.2 690.6585,361.5741 694.4785,375.8441" fill="none" id="MQTT-to-Dashboard" style="stroke:#181818;stroke-width:1;"/><polygon fill="#181818" points="696.03,381.64,697.5666,371.9118,694.7371,376.8101,689.8387,373.9805,696.03,381.64" style="stroke:#181818;stroke-width:1;"/><text fill="#000000" font-family="sans-serif" font-size="13" lengthAdjust="spacing" textLength="103.9937" x="698.74" y="348.0669">Web Dashboard</text></g><!--link MQTT to App--><g class="link" data-entity-1="MQTT" data-entity-2="App" data-source-line="12" data-uid="lnk18" id="link_MQTT_App"><path codeLine="12" d="M792.6,305.33 C798.37,314.52 804.96,325.2 810.74,335 C819.78,350.34 826.6469,362.5781 834.1369,376.2481" fill="none" id="MQTT-to-App" style="stroke:#181818;stroke-width:1;"/><polygon fill="#181818" points="837.02,381.51,836.2033,371.6951,834.6174,377.1251,829.1874,375.5392,837.02,381.51" style="stroke:#181818;stroke-width:1;"/><text fill="#000000" font-family="sans-serif" font-size="13" lengthAdjust="spacing" textLength="80.0757" x="819.74" y="348.0669">Android App</text></g><!--link MPU6050 to Accel--><g class="link" data-entity-1="MPU6050" data-entity-2="Accel" data-source-line="14" data-uid="lnk20" id="link_MPU6050_Accel"><path codeLine="14" d="M143.27,162.2 C111.5,168.28 72.12,181.45 49.74,210 C39.55,223 37.5971,235.7567 38.2971,250.5867" fill="none" id="MPU6050-to-Accel" style="stroke:#181818;stroke-width:1;"/><polygon fill="#181818" points="38.58,256.58,42.1512,247.4014,38.3443,251.5856,34.1601,247.7786,38.58,256.58" style="stroke:#181818;stroke-width:1;"/><text fill="#000000" font-family="sans-serif" font-size="13" lengthAdjust="spacing" textLength="130.3682" x="50.74" y="223.0669">Accelerometer Data</text></g><!--link MPU6050 to Gyro--><g class="link" data-entity-1="MPU6050" data-entity-2="Gyro" data-source-line="15" data-uid="lnk22" id="link_MPU6050_Gyro"><path codeLine="15" d="M191.59,180.42 C190.53,202.31 189.2306,228.807 188.1706,250.667" fill="none" id="MPU6050-to-Gyro" style="stroke:#181818;stroke-width:1;"/><polygon fill="#181818" points="187.88,256.66,192.3112,247.8643,188.1222,251.6659,184.3206,247.4768,187.88,256.66" style="stroke:#181818;stroke-width:1;"/><text fill="#000000" font-family="sans-serif" font-size="13" lengthAdjust="spacing" textLength="104.3618" x="191.74" y="223.0669">Gyroscope Data</text></g><!--link SW420 to DigVib--><g class="link" data-entity-1="SW420" data-entity-2="DigVib" data-source-line="16" data-uid="lnk24" id="link_SW420_DigVib"><path codeLine="16" d="M338.74,180.42 C338.74,202.31 338.74,228.8 338.74,250.66" fill="none" id="SW420-to-DigVib" style="stroke:#181818;stroke-width:1;"/><polygon fill="#181818" points="338.74,256.66,342.74,247.66,338.74,251.66,334.74,247.66,338.74,256.66" style="stroke:#181818;stroke-width:1;"/><text fill="#000000" font-family="sans-serif" font-size="13" lengthAdjust="spacing" textLength="105.2632" x="339.74" y="223.0669">Digital Vibration</text></g><!--link SW1801P to AnaVib--><g class="link" data-entity-1="SW1801P" data-entity-2="AnaVib" data-source-line="17" data-uid="lnk26" id="link_SW1801P_AnaVib"><path codeLine="17" d="M487.93,180.42 C488.11,202.31 488.3206,228.8002 488.5006,250.6602" fill="none" id="SW1801P-to-AnaVib" style="stroke:#181818;stroke-width:1;"/><polygon fill="#181818" points="488.55,256.66,492.4758,247.6274,488.5088,251.6602,484.476,247.6932,488.55,256.66" style="stroke:#181818;stroke-width:1;"/><text fill="#000000" font-family="sans-serif" font-size="13" lengthAdjust="spacing" textLength="108.0181" x="489.74" y="223.0669">Analog Vibration</text></g><!--link Accel to Peak--><g class="link" data-entity-1="Accel" data-entity-2="Peak" data-source-line="19" data-uid="lnk28" id="link_Accel_Peak"><path codeLine="19" d="M49.13,305.42 C54.77,320.25 63.79,339.01 76.74,352 C96.77,372.11 120.3859,383.8929 142.9259,392.3929" fill="none" id="Accel-to-Peak" style="stroke:#181818;stroke-width:1;"/><polygon fill="#181818" points="148.54,394.51,141.5303,387.5916,143.8616,392.7457,138.7075,395.0771,148.54,394.51" style="stroke:#181818;stroke-width:1;"/><text fill="#000000" font-family="sans-serif" font-size="13" lengthAdjust="spacing" textLength="98.6172" x="77.74" y="348.0669">Peak Detection</text></g><!--link Gyro to Peak--><g class="link" data-entity-1="Gyro" data-entity-2="Peak" data-source-line="20" data-uid="lnk29" id="link_Gyro_Peak"><path codeLine="20" d="M185.79,305.42 C184.9,327.31 183.8113,353.8049 182.9313,375.6649" fill="none" id="Gyro-to-Peak" style="stroke:#181818;stroke-width:1;"/><polygon fill="#181818" points="182.69,381.66,187.0488,372.8282,182.8911,376.664,179.0552,372.5064,182.69,381.66" style="stroke:#181818;stroke-width:1;"/></g><!--link DigVib to Validation--><g class="link" data-entity-1="DigVib" data-entity-2="Validation" data-source-line="21" data-uid="lnk31" id="link_DigVib_Validation"><path codeLine="21" d="M335.47,305.33 C333.96,318.94 332.71,336.44 333.74,352 C334.38,361.72 334.8296,366.4491 336.1296,375.6391" fill="none" id="DigVib-to-Validation" style="stroke:#181818;stroke-width:1;"/><polygon fill="#181818" points="336.97,381.58,339.67,372.1085,336.2697,376.6293,331.7489,373.229,336.97,381.58" style="stroke:#181818;stroke-width:1;"/><text fill="#000000" font-family="sans-serif" font-size="13" lengthAdjust="spacing" textLength="128.3052" x="334.74" y="348.0669">Vibration Validation</text></g><!--link AnaVib to Validation--><g class="link" data-entity-1="AnaVib" data-entity-2="Validation" data-source-line="22" data-uid="lnk32" id="link_AnaVib_Validation"><path codeLine="22" d="M486.83,305.27 C484.49,320.23 479.29,339.18 467.74,352 C448.14,373.74 423.9696,385.0949 398.0896,392.8149" fill="none" id="AnaVib-to-Validation" style="stroke:#181818;stroke-width:1;"/><polygon fill="#181818" points="392.34,394.53,402.1079,395.7904,397.1314,393.1007,399.8211,388.1242,392.34,394.53" style="stroke:#181818;stroke-width:1;"/></g><!--link Peak to Scale--><g class="link" data-entity-1="Peak" data-entity-2="Scale" data-source-line="24" data-uid="lnk34" id="link_Peak_Scale"><path codeLine="24" d="M186.12,430.42 C190.21,452.31 195.1892,478.9019 199.2692,500.7619" fill="none" id="Peak-to-Scale" style="stroke:#181818;stroke-width:1;"/><polygon fill="#181818" points="200.37,506.66,202.6508,497.0789,199.4526,501.7449,194.7866,498.5467,200.37,506.66" style="stroke:#181818;stroke-width:1;"/><text fill="#000000" font-family="sans-serif" font-size="13" lengthAdjust="spacing" textLength="117.5142" x="195.74" y="473.0669">Richter Scale Calc</text></g><!--link Validation to Classify--><g class="link" data-entity-1="Validation" data-entity-2="Classify" data-source-line="25" data-uid="lnk36" id="link_Validation_Classify"><path codeLine="25" d="M338.45,430.42 C336.32,452.31 333.7346,478.8285 331.5946,500.6885" fill="none" id="Validation-to-Classify" style="stroke:#181818;stroke-width:1;"/><polygon fill="#181818" points="331.01,506.66,335.8678,498.0925,331.4971,501.6838,327.9059,497.3131,331.01,506.66" style="stroke:#181818;stroke-width:1;"/><text fill="#000000" font-family="sans-serif" font-size="13" lengthAdjust="spacing" textLength="127.3911" x="336.74" y="473.0669">Event Classification</text></g><!--link Scale to Alert--><g class="link" data-entity-1="Scale" data-entity-2="Alert" data-source-line="26" data-uid="lnk38" id="link_Scale_Alert"><path codeLine="26" d="M200.24,555.31 C198.59,569.39 198.44,587.38 204.74,602 C209.71,613.56 214.1164,619.7605 223.3564,628.0605" fill="none" id="Scale-to-Alert" style="stroke:#181818;stroke-width:1;"/><polygon fill="#181818" points="227.82,632.07,223.7976,623.08,224.1003,628.7287,218.4516,629.0315,227.82,632.07" style="stroke:#181818;stroke-width:1;"/><text fill="#000000" font-family="sans-serif" font-size="13" lengthAdjust="spacing" textLength="83.5542" x="205.74" y="598.0669">Alert System</text></g><!--link Classify to Alert--><g class="link" data-entity-1="Classify" data-entity-2="Alert" data-source-line="27" data-uid="lnk39" id="link_Classify_Alert"><path codeLine="27" d="M317.76,555.3 C311.12,569.05 302.3,586.71 293.74,602 C288.23,611.84 284.9525,617.3561 279.2025,626.4661" fill="none" id="Classify-to-Alert" style="stroke:#181818;stroke-width:1;"/><polygon fill="#181818" points="276,631.54,284.1863,626.0642,278.6687,627.3118,277.4212,621.7942,276,631.54" style="stroke:#181818;stroke-width:1;"/></g><!--SRC=[RPBDRi8m3CVlVehi0P20VMZQOHBG3aqQKqSPd4Dg828qA0sJuEaNEoqjsYvn7VyS_stthi2DBb7CqybYz3dzI8Koige0seiqp-w7mAVezLx5BFj-wZ_snOjudtsB7ClAkauuNpqCARZKQoUzjkL_oE2vFyW2D2gbiTk_nFXqkQ0BG7AIfl7oS-NnqA5M-aq3q1c5VIqM8ONDsDazEk1lYYMosgsjT4K0LhXk_HOP7O-ig71M5-G1DAroM2aq1915Pm_eWwP4Udc3JS_E1efCfUmH8n67maBqDao6EjDRxKDprpb1CnQkLig8rHDgAOX22CfGxWF29Wbo50Eie0b3NO_yfJIwY2lfhgUzXhhgBGp01NXnIXeCoNEjTjHzz2VIAEWyJkI4_YAzEGSu_S7IDnTQrRro9dSQXkcfKRRrZg_fL-8N]--></g></svg>